<?xml version="1.0" encoding="UTF-8" standalone="no"?>
<!-- Created with Inkscape (http://www.inkscape.org/) -->

<svg width="106mm" height="106mm" viewBox="0 0 106 106" version="1.1" id="svg5" xml:space="preserve"
  inkscape:version="1.2.2 (732a01da63, 2022-12-09)" sodipodi:docname="flow_erp_logo.svg"
  xmlns:inkscape="http://www.inkscape.org/namespaces/inkscape"
  xmlns:sodipodi="http://sodipodi.sourceforge.net/DTD/sodipodi-0.dtd" xmlns="http://www.w3.org/2000/svg"
  xmlns:svg="http://www.w3.org/2000/svg">
  <sodipodi:namedview id="namedview7" pagecolor="#ffffff" bordercolor="#666666" borderopacity="1.0"
    inkscape:showpageshadow="2" inkscape:pageopacity="0.0" inkscape:pagecheckerboard="0" inkscape:deskcolor="#d1d1d1"
    inkscape:document-units="mm" showgrid="false" inkscape:zoom="0.52724989" inkscape:cx="319.58281"
    inkscape:cy="-20.862973" inkscape:window-width="1920" inkscape:window-height="1017" inkscape:window-x="-8"
    inkscape:window-y="-8" inkscape:window-maximized="1" inkscape:current-layer="layer1" />
  <defs id="defs2" />
  <g inkscape:label="Camada 1" inkscape:groupmode="layer" id="layer1">
    <g id="g1550" transform="translate(0.3888588,0.61113358)">
      <rect style="fill:#00a3ff;fill-opacity:1;stroke:none;stroke-width:0.222268;stroke-linecap:square" id="rect1022"
        width="104.77773" height="104.77773" x="0.22227478" y="7.1054274e-15" ry="8.0290833" />
      <g id="g2319" transform="matrix(0.80705995,0,0,0.78768072,-21.472709,-44.812531)" style="fill:#ffffff">
        <path style="fill:#ffffff;fill-opacity:1;stroke:none;stroke-width:0.522648"
          d="m 42.59355,112.69155 0.521852,0.0289 c 6.14895,-7.86713 16.352072,-16.24611 27.015543,-15.234128 16.924667,1.606268 28.419253,20.689128 46.760115,15.784508 2.80587,-0.75037 5.58868,-2.04903 8.04987,-3.58009 3.45382,-2.14892 6.72637,-4.68292 9.54055,-7.61692 3.2975,-3.438447 6.91649,-6.831509 9.28716,-11.001834 -7.44535,4.593183 -14.70627,10.346694 -24.08603,9.591844 -18.0117,-1.449411 -31.954404,-23.825298 -50.925174,-16.191478 -2.760433,1.11079 -5.304547,2.799938 -7.587986,4.692543 -3.736777,3.09719 -6.899872,6.61735 -9.923534,10.395902 -3.201011,4.000213 -6.628557,8.400833 -8.652366,13.130763"
          id="path302" />
        <path style="fill:#ffffff;fill-opacity:1;stroke:none;stroke-width:0.522648"
          d="m 39.820818,162.78908 c 8.616565,-6.19443 14.71079,-15.20173 26.492163,-15.23539 19.73721,-0.0555 32.366833,24.77965 53.699319,13.35676 3.66762,-1.96408 7.23532,-4.44929 10.30056,-7.26643 3.86105,-3.54832 7.64028,-7.66127 10.65417,-11.95266 -8.46414,4.26508 -14.92549,10.07053 -25.10344,9.05915 -16.975216,-1.68701 -30.267436,-22.52319 -48.288554,-16.54188 -3.346502,1.11031 -6.391777,3.12872 -9.18839,5.23577 -3.604537,2.71557 -6.520691,6.2382 -9.357087,9.72127 -3.40519,4.18127 -6.849669,8.76081 -9.208741,13.62341 z"
          id="path308" />
        <path style="fill:#ffffff;fill-opacity:1;stroke:none;stroke-width:0.522648"
          d="m 40.685332,137.71145 c 9.007009,-6.13034 15.146384,-16.25777 27.55763,-15.57085 19.594032,1.08447 31.837288,24.78568 53.142638,13.95713 4.11112,-2.08957 7.49978,-4.90539 10.90968,-7.97251 3.69852,-3.32622 7.58276,-7.13284 10.05811,-11.48262 -7.5455,4.56811 -14.65846,9.93692 -24.05962,9.11472 -16.63422,-1.45483 -27.893157,-19.53109 -45.066168,-18.01795 -14.938657,1.31625 -25.59829,18.37845 -32.54227,29.97208"
          id="path306" />
      </g>
    </g>
  </g>
</svg>